<svg width="259" height="138" viewBox="0 0 259 138" fill="none" xmlns="http://www.w3.org/2000/svg">
<path d="M258.346 58.3339C258.421 59.0584 258.421 59.7888 258.346 60.5132C258.245 61.8662 257.702 63.1485 256.8 64.1623C255.606 65.3003 254.039 65.9665 252.391 66.0374C251.529 66.1641 250.668 66.2908 249.857 66.3922C248.21 66.6456 246.588 66.8737 245.017 67.0764C241.824 67.4819 238.758 67.8873 235.843 68.2674C230.015 68.9516 224.795 69.4837 220.386 69.8385C211.592 70.5227 206.144 70.4467 206.018 69.4584C205.891 68.4701 211.086 66.7216 219.701 64.6944C224.009 63.6808 229.179 62.5911 234.906 61.4761C237.795 60.9693 240.835 60.3865 244.003 59.829C245.54 59.5418 247.111 59.2631 248.716 58.9928C247.842 58.4455 246.996 57.8534 246.182 57.2189C242.66 54.8622 237.186 50.5037 227.81 44.1432C214.506 35.0357 200.258 27.3894 185.314 21.3368C174.395 16.994 163.047 13.8173 151.459 11.8594C145.072 10.7966 138.622 10.1533 132.15 9.93353C125.381 9.77765 118.609 10.0655 111.878 10.7951C105.032 11.6254 98.2567 12.9551 91.6052 14.7736C84.869 16.6399 78.3 19.0641 71.9663 22.021C59.4042 27.8486 47.9892 35.882 38.2634 45.7397C33.6576 50.4765 29.4217 55.5595 25.5932 60.944C22.0282 66.0628 18.8517 71.4417 16.0905 77.0352C11.2545 86.5822 7.6851 96.7196 5.47279 107.19C4.06186 114.352 3.21458 121.613 2.93874 128.907C3.14557 131.624 3.01793 134.356 2.55864 137.042C1.71518 134.428 1.2626 131.704 1.21561 128.958C0.740601 121.463 1.0463 113.938 2.12784 106.506C3.80113 95.4744 6.99928 84.7286 11.6305 74.5772C14.3103 68.6019 17.4449 62.8411 21.0065 57.3457C24.8478 51.5181 29.1527 46.0098 33.8795 40.8743C43.8873 30.14 55.7621 21.3133 68.9254 14.8243C75.553 11.5482 82.4447 8.83556 89.5273 6.7153C96.5295 4.64529 103.679 3.11198 110.915 2.12868C124.754 0.286484 138.787 0.465714 152.574 2.66081C164.723 4.62497 176.619 7.91348 188.051 12.4676C203.657 18.711 218.399 26.9292 231.916 36.9212C238.225 41.5076 244.157 46.592 249.654 52.1255L250.237 52.759C248.798 40.873 248.298 28.8921 248.742 16.9275C249.122 6.41122 250.287 -0.0252533 251.276 9.15527e-05C253.303 9.15527e-05 253.556 25.7461 258.168 56.7122L258.346 58.3339Z" fill="#2E2E2E"/>
</svg>
