{
  "accessors": [
    {
      "bufferView": 2,
      "componentType": 5126,
      "count": 6212,
      "max": [
        273.77783203125,
        230.1002655029297,
        244.79193115234375
      ],
      "min": [
        -595.255615234375,
        -629.5750732421875,
        1.4726669788360596
      ],
      "type": "VEC3"
    },
    {
      "bufferView": 2,
      "byteOffset": 74544,
      "componentType": 5126,
      "count": 6212,
      "max": [
        0.9999840259552002,
        0.9999412298202515,
        0.9999395608901978
      ],
      "min": [
        -0.9997109770774841,
        -0.999165415763855,
        -1.0
      ],
      "type": "VEC3"
    },
    {
      "bufferView": 3,
      "componentType": 5126,
      "count": 6212,
      "max": [
        0.9983174204826355,
        0.9990713596343994,
        0.9973303079605103,
        -1.0
      ],
      "min": [
        -0.9477992057800293,
        -0.9981197118759155,
        -0.9994661808013916,
        -1.0
      ],
      "type": "VEC4"
    },
    {
      "bufferView": 1,
      "componentType": 5126,
      "count": 6212,
      "max": [
        0.9980400204658508,
        0.9980400204658508
      ],
      "min": [
        0.21277999877929688,
        0.0019499999471008778
      ],
      "type": "VEC2"
    },
    {
      "bufferView": 0,
      "componentType": 5125,
      "count": 35826,
      "type": "SCALAR"
    }
  ],
  "asset": {
    "extras": {
      "author": "Stefan E (https://sketchfab.com/stefevr)",
      "license": "CC-BY-4.0 (http://creativecommons.org/licenses/by/4.0/)",
      "source": "https://sketchfab.com/3d-models/pillow-287c3f62c2b04a3585e2efe26678b8a6",
      "title": "Pillow"
    },
    "generator": "Sketchfab-12.65.0",
    "version": "2.0"
  },
  "bufferViews": [
    {
      "buffer": 0,
      "byteLength": 143304,
      "name": "floatBufferViews",
      "target": 34963
    },
    {
      "buffer": 0,
      "byteLength": 49696,
      "byteOffset": 143304,
      "byteStride": 8,
      "name": "floatBufferViews",
      "target": 34962
    },
    {
      "buffer": 0,
      "byteLength": 149088,
      "byteOffset": 193000,
      "byteStride": 12,
      "name": "floatBufferViews",
      "target": 34962
    },
    {
      "buffer": 0,
      "byteLength": 99392,
      "byteOffset": 342088,
      "byteStride": 16,
      "name": "floatBufferViews",
      "target": 34962
    }
  ],
  "buffers": [
    {
      "byteLength": 441480,
      "uri": "scene.bin"
    }
  ],
  "extensionsRequired": [
    "KHR_materials_pbrSpecularGlossiness"
  ],
  "extensionsUsed": [
    "KHR_materials_pbrSpecularGlossiness"
  ],
  "images": [
    {
      "uri": "textures/defaultMat_diffuse.jpeg"
    },
    {
      "uri": "textures/defaultMat_specularGlossiness.png"
    },
    {
      "uri": "textures/defaultMat_normal.png"
    }
  ],
  "materials": [
    {
      "doubleSided": true,
      "extensions": {
        "KHR_materials_pbrSpecularGlossiness": {
          "diffuseFactor": [
            1.0,
            1.0,
            1.0,
            1.0
          ],
          "diffuseTexture": {
            "index": 0
          },
          "glossinessFactor": 1.0,
          "specularFactor": [
            0.72,
            0.72,
            0.72
          ],
          "specularGlossinessTexture": {
            "index": 1
          }
        }
      },
      "name": "defaultMat",
      "normalTexture": {
        "index": 2,
        "scale": 0.29
      }
    }
  ],
  "meshes": [
    {
      "name": "Object_0",
      "primitives": [
        {
          "attributes": {
            "NORMAL": 1,
            "POSITION": 0,
            "TANGENT": 2,
            "TEXCOORD_0": 3
          },
          "indices": 4,
          "material": 0,
          "mode": 4
        }
      ]
    }
  ],
  "nodes": [
    {
      "children": [
        1
      ],
      "matrix": [
        1.0,
        0.0,
        0.0,
        0.0,
        0.0,
        2.220446049250313e-16,
        -1.0,
        0.0,
        0.0,
        1.0,
        2.220446049250313e-16,
        0.0,
        0.0,
        0.0,
        0.0,
        1.0
      ],
      "name": "Sketchfab_model"
    },
    {
      "children": [
        2
      ],
      "name": "Pillow One.OBJ.cleaner.gles"
    },
    {
      "mesh": 0,
      "name": "Object_2"
    }
  ],
  "samplers": [
    {
      "magFilter": 9729,
      "minFilter": 9987,
      "wrapS": 10497,
      "wrapT": 10497
    }
  ],
  "scene": 0,
  "scenes": [
    {
      "name": "Sketchfab_Scene",
      "nodes": [
        0
      ]
    }
  ],
  "textures": [
    {
      "sampler": 0,
      "source": 0
    },
    {
      "sampler": 0,
      "source": 1
    },
    {
      "sampler": 0,
      "source": 2
    }
  ]
}
